<svg width="333" height="389" viewBox="0 0 333 389" fill="none" xmlns="http://www.w3.org/2000/svg">
<g clip-path="url(#clip0_511_179)">
<g clip-path="url(#clip1_511_179)">
<g clip-path="url(#clip2_511_179)">
<path d="M83.4251 419C68.012 419 51.6647 417.973 34.3832 415.918C17.5689 413.863 1.22156 410.781 -14.6587 406.671C-30.0719 402.151 -43.1497 396.808 -53.8922 390.644L-27.9701 306.192C-12.0898 314.411 5.65868 320.986 25.2754 325.918C44.8922 330.849 66.3772 333.315 89.7305 333.315C120.557 333.315 142.743 328.384 156.287 318.521C170.299 308.658 177.305 296.123 177.305 280.918C177.305 247.219 147.647 230.37 88.3293 230.37H57.503V152.699H83.4251C114.251 152.699 135.737 147.562 147.88 137.288C160.491 126.603 166.796 113.863 166.796 99.0685C166.796 86.3288 161.659 75.8493 151.383 67.6301C141.575 59 126.395 54.6849 105.844 54.6849C83.8922 54.6849 65.4431 60.4383 50.497 71.9452C35.5509 83.0411 24.5748 97.8356 17.5689 116.329L-63 78.1096C-55.0599 56.7397 -42.4491 37.8356 -25.1677 21.3972C-7.88623 4.9589 12.8982 -7.78082 37.1856 -16.8219C61.9401 -26.274 89.0299 -31 118.455 -31C150.216 -31 178.006 -26.0685 201.826 -16.2055C225.647 -6.34248 244.096 7.63013 257.174 25.7123C270.251 43.3836 276.79 64.3425 276.79 88.589C276.79 109.137 270.251 128.452 257.174 146.534C244.563 164.616 225.88 178.178 201.126 187.219C229.15 194.205 250.635 205.918 265.581 222.356C280.527 238.794 288 259.753 288 285.233C288 310.712 279.593 333.726 262.778 354.274C245.964 374.411 222.144 390.233 191.317 401.74C160.958 413.247 124.994 419 83.4251 419Z" fill="#21C3E7" fill-opacity="0.2"/>
</g>
</g>
</g>
<defs>
<clipPath id="clip0_511_179">
<rect width="332.887" height="388.369" rx="30" fill="white"/>
</clipPath>
<clipPath id="clip1_511_179">
<rect width="332.887" height="388.369" fill="white"/>
</clipPath>
<clipPath id="clip2_511_179">
<rect width="332.887" height="388.369" fill="white"/>
</clipPath>
</defs>
</svg>
