<svg width="39" height="35" viewBox="0 0 39 35" fill="none" xmlns="http://www.w3.org/2000/svg">
<path d="M20.2379 30.7545C25.0362 30.7545 28.9261 26.9025 28.9261 22.1507C28.9261 17.399 25.0362 13.5469 20.2379 13.5469C15.4395 13.5469 11.5497 17.399 11.5497 22.1507C11.5497 26.9025 15.4395 30.7545 20.2379 30.7545ZM20.2379 30.7545H2.86145M12.7079 17.8378C10.3087 21.9529 11.7325 27.2149 15.888 29.5908C20.0435 31.9667 25.3572 30.5567 27.7563 26.4416C30.1555 22.3264 28.7318 17.0644 24.5762 14.6886C20.4207 12.3127 15.1071 13.7226 12.7079 17.8378ZM12.7079 17.8378L21.3961 2.93555M27.7565 17.8434C25.3573 13.7283 20.0437 12.3183 15.8882 14.6942C11.7327 17.0701 10.3089 22.3321 12.7081 26.4472C15.1073 30.5624 20.4209 31.9723 24.5764 29.5964C28.7319 27.2206 30.1557 21.9586 27.7565 17.8434ZM27.7565 17.8434L36.4447 32.7456" stroke="#21C3E7" stroke-width="4.34731" stroke-linecap="round"/>
</svg>
