<svg width="429" height="500" viewBox="0 0 429 500" fill="none" xmlns="http://www.w3.org/2000/svg">
<g clip-path="url(#clip0_565_232)">
<g clip-path="url(#clip1_565_232)">
<path d="M216.699 465.338C300.072 465.338 367.66 398.408 367.66 315.845C367.66 233.282 300.072 166.351 216.699 166.351C133.326 166.351 65.7389 233.282 65.7389 315.845C65.7389 398.408 133.326 465.338 216.699 465.338ZM216.699 465.338H-85.2214M85.864 240.906C44.1775 312.408 68.9161 403.837 141.119 445.119C213.323 486.4 305.648 461.902 347.335 390.4C389.022 318.898 364.283 227.469 292.08 186.188C219.876 144.906 127.551 169.405 85.864 240.906ZM85.864 240.906L236.824 -18.0244M347.338 241.004C305.651 169.503 213.325 145.004 141.122 186.286C68.9189 227.568 44.1802 318.996 85.8668 390.498C127.553 462 219.879 486.498 292.082 445.217C364.286 403.935 389.024 312.506 347.338 241.004ZM347.338 241.004L498.298 499.935" stroke="#21C3E7" stroke-opacity="0.2" stroke-width="75.5358" stroke-linecap="round"/>
</g>
</g>
<defs>
<clipPath id="clip0_565_232">
<rect x="0.026123" width="428.571" height="500" rx="38.6231" fill="white"/>
</clipPath>
<clipPath id="clip1_565_232">
<rect width="428.571" height="500" fill="white" transform="translate(0.0268555)"/>
</clipPath>
</defs>
</svg>
