<svg width="304" height="266" viewBox="0 0 304 266" fill="none" xmlns="http://www.w3.org/2000/svg">
<path d="M152.126 233.354C189.444 233.354 219.696 203.396 219.696 166.44C219.696 129.485 189.444 99.5267 152.126 99.5267C114.808 99.5267 84.556 129.485 84.556 166.44C84.556 203.396 114.808 233.354 152.126 233.354ZM152.126 233.354H16.9858M93.564 132.898C74.905 164.902 85.9781 205.826 118.296 224.304C150.615 242.781 191.94 231.816 210.599 199.812C229.258 167.807 218.185 126.883 185.866 108.406C153.548 89.9281 112.223 100.894 93.564 132.898ZM93.564 132.898L161.134 17M210.6 132.942C191.941 100.937 150.616 89.972 118.298 108.45C85.9793 126.927 74.9062 167.851 93.5652 199.855C112.224 231.86 153.549 242.825 185.868 224.347C218.186 205.87 229.259 164.946 210.6 132.942ZM210.6 132.942L278.17 248.84" stroke="#2D2D2D" stroke-opacity="0.05" stroke-width="33.8099" stroke-linecap="round"/>
<path d="M71.9341 171.78C70.5813 173.927 68.7286 175.589 66.376 176.765C64.0234 177.912 61.4062 178.485 58.5242 178.485C54.9953 178.485 51.9664 177.868 49.4373 176.633C46.9377 175.397 45.0262 173.618 43.7029 171.295C42.3795 168.972 41.7179 166.208 41.7179 163.002C41.7179 159.62 42.4383 156.68 43.8793 154.18C45.3497 151.68 47.3935 149.739 50.0108 148.357C52.628 146.946 55.6717 146.24 59.1418 146.24C62.2002 146.24 64.7733 146.784 66.8613 147.872C68.9492 148.931 70.6548 150.578 71.9782 152.812L65.3174 157.532C64.7586 156.444 63.8911 155.591 62.7148 154.974C61.5385 154.327 60.2446 154.003 58.833 154.003C56.2452 153.974 54.2308 154.783 52.7898 156.43C51.3782 158.047 50.6724 160.164 50.6724 162.782C50.6724 165.281 51.3194 167.237 52.6133 168.648C53.9367 170.031 55.9217 170.722 58.5684 170.722C61.6267 170.722 63.9205 169.398 65.4497 166.752L71.9341 171.78ZM102.695 169.884L104.725 176.677C104.019 177.235 103.078 177.677 101.901 178C100.725 178.353 99.5342 178.529 98.3284 178.529C96.0053 178.529 94.0791 178.103 92.5499 177.25C91.0207 176.397 89.7856 175.192 88.8445 173.633L85.9332 168.737C85.5803 168.148 85.2421 167.707 84.9186 167.413C84.5951 167.119 84.1981 166.928 83.7276 166.84V178H75.0818V146.681H85.6685C90.4913 146.681 94.0497 147.593 96.3434 149.416C98.6666 151.239 99.8282 153.768 99.8282 157.003C99.8282 159.297 99.1666 161.208 97.8432 162.738C96.5199 164.237 94.7701 165.296 92.594 165.914C93.7115 166.266 94.5937 166.928 95.2407 167.899L96.0347 169.09C96.7698 170.236 97.902 170.81 99.4312 170.81C99.99 170.81 100.534 170.751 101.063 170.633C101.622 170.486 102.166 170.236 102.695 169.884ZM85.5803 153.783H83.7276V160.003H85.9773C87.8888 160.003 89.2121 159.753 89.9473 159.253C90.7119 158.723 91.0942 157.915 91.0942 156.827C91.0942 155.65 90.5796 154.856 89.5503 154.445C88.5505 154.003 87.2271 153.783 85.5803 153.783ZM128.386 146.681L117.888 164.017V178H109.066V164.458L98.0379 146.681H107.875L113.786 156.43L119.211 146.681H128.386ZM139.976 178H131.331V146.681H143.196C148.049 146.681 151.622 147.563 153.916 149.328C156.239 151.063 157.4 153.606 157.4 156.959C157.4 159.194 156.797 161.12 155.592 162.738C154.386 164.355 152.68 165.605 150.475 166.487C148.269 167.34 145.637 167.766 142.579 167.766H139.976V178ZM143.461 153.783H139.976V160.62H143.02C144.843 160.62 146.225 160.341 147.166 159.782C148.137 159.223 148.622 158.312 148.622 157.047C148.622 155.93 148.21 155.106 147.387 154.577C146.564 154.048 145.255 153.783 143.461 153.783ZM188.244 146.681L186.965 154.356H177.79V178H168.967V154.356H159.175V146.681H188.244ZM204.518 178.441C201.136 178.471 198.225 177.868 195.784 176.633C193.343 175.397 191.476 173.618 190.182 171.295C188.888 168.972 188.241 166.178 188.241 162.914C188.241 159.561 188.947 156.635 190.359 154.136C191.77 151.636 193.74 149.695 196.27 148.313C198.799 146.931 201.754 146.24 205.136 146.24C208.224 146.24 210.914 146.887 213.208 148.181C215.531 149.475 217.325 151.283 218.59 153.606C219.884 155.9 220.531 158.606 220.531 161.723C220.531 165.017 219.854 167.913 218.502 170.413C217.178 172.913 215.311 174.868 212.899 176.28C210.488 177.691 207.694 178.412 204.518 178.441ZM204.298 170.722C206.562 170.722 208.356 169.928 209.679 168.34C211.003 166.722 211.664 164.575 211.664 161.899C211.664 159.488 211.032 157.562 209.768 156.121C208.532 154.68 206.871 153.959 204.783 153.959C203.254 153.959 201.916 154.342 200.769 155.106C199.622 155.841 198.725 156.871 198.078 158.194C197.461 159.488 197.152 160.988 197.152 162.693C197.152 165.222 197.784 167.193 199.049 168.604C200.313 170.016 202.063 170.722 204.298 170.722Z" fill="white"/>
<path d="M233.02 178.485C231.314 178.485 229.638 178.294 227.991 177.912C226.374 177.529 225.139 177.059 224.286 176.5L226.139 169.178C227.168 169.766 228.285 170.222 229.491 170.545C230.697 170.869 232.02 171.03 233.461 171.03C235.255 171.03 236.461 170.751 237.078 170.192C237.696 169.604 238.005 168.957 238.005 168.251C238.005 167.369 237.608 166.708 236.814 166.266C236.02 165.796 234.755 165.561 233.02 165.561H230.991V158.9H232.888C234.093 158.9 235.005 158.753 235.623 158.459C236.27 158.165 236.711 157.797 236.946 157.356C237.181 156.915 237.299 156.474 237.299 156.033C237.299 155.356 237.064 154.797 236.593 154.356C236.152 153.915 235.417 153.695 234.388 153.695C233.123 153.695 232.094 154.062 231.3 154.797C230.506 155.503 229.932 156.371 229.579 157.4L223.448 154.003C223.977 152.474 224.815 151.136 225.962 149.989C227.109 148.813 228.491 147.901 230.109 147.254C231.756 146.578 233.52 146.24 235.402 146.24C237.431 146.24 239.225 146.593 240.784 147.299C242.342 147.975 243.548 148.975 244.401 150.298C245.283 151.592 245.724 153.165 245.724 155.018C245.724 156.371 245.342 157.694 244.577 158.988C243.813 160.253 242.68 161.208 241.181 161.855C242.886 162.355 244.18 163.179 245.062 164.326C245.974 165.443 246.43 166.884 246.43 168.648C246.43 170.472 245.871 172.133 244.754 173.633C243.666 175.133 242.107 176.324 240.078 177.206C238.078 178.059 235.726 178.485 233.02 178.485ZM261.87 178.485C257.782 178.485 254.606 177.235 252.341 174.736C250.107 172.236 248.989 168.296 248.989 162.914C248.989 159.62 249.504 156.724 250.533 154.224C251.562 151.724 253.047 149.769 254.988 148.357C256.958 146.946 259.34 146.24 262.134 146.24C265.898 146.24 268.839 147.534 270.956 150.122C273.103 152.71 274.177 156.577 274.177 161.723C274.177 164.87 273.691 167.707 272.721 170.236C271.78 172.765 270.383 174.78 268.53 176.28C266.707 177.75 264.487 178.485 261.87 178.485ZM261.605 171.119C263.075 171.119 264.104 170.31 264.693 168.693C265.31 167.075 265.619 164.796 265.619 161.855C265.619 159.091 265.34 157.018 264.781 155.636C264.222 154.253 263.266 153.562 261.914 153.562C260.473 153.562 259.385 154.371 258.649 155.988C257.914 157.576 257.547 159.811 257.547 162.693C257.547 165.546 257.841 167.663 258.429 169.045C259.017 170.428 260.076 171.119 261.605 171.119ZM290.101 178.485C287.513 178.485 285.263 177.941 283.352 176.853C281.47 175.736 280.014 174.015 278.985 171.692C277.955 169.369 277.441 166.384 277.441 162.738C277.441 160.061 277.808 157.694 278.544 155.636C279.308 153.577 280.337 151.857 281.631 150.475C282.925 149.063 284.396 148.004 286.042 147.299C287.719 146.593 289.468 146.24 291.292 146.24C296.409 146.24 299.952 148.49 301.923 152.989L294.997 156.341C294.615 155.459 294.1 154.797 293.453 154.356C292.836 153.915 292.012 153.695 290.983 153.695C289.542 153.695 288.336 154.268 287.366 155.415C286.425 156.562 285.91 158.194 285.822 160.311C286.675 159.488 287.63 158.9 288.689 158.547C289.748 158.165 290.851 157.973 291.998 157.973C293.674 157.973 295.262 158.326 296.762 159.032C298.291 159.738 299.526 160.811 300.467 162.252C301.437 163.664 301.923 165.458 301.923 167.634C301.923 169.604 301.437 171.413 300.467 173.06C299.526 174.706 298.173 176.03 296.409 177.03C294.644 178 292.542 178.485 290.101 178.485ZM290.012 171.692C290.954 171.692 291.762 171.398 292.439 170.81C293.144 170.192 293.497 169.384 293.497 168.384C293.497 167.296 293.189 166.428 292.571 165.781C291.983 165.105 291.13 164.767 290.012 164.767C288.954 164.767 288.101 165.105 287.454 165.781C286.807 166.458 286.484 167.281 286.484 168.251C286.484 169.428 286.836 170.295 287.542 170.854C288.277 171.413 289.101 171.692 290.012 171.692Z" fill="#464646"/>
</svg>
