<svg width="296" height="267" viewBox="0 0 296 267" fill="none" xmlns="http://www.w3.org/2000/svg">
<path d="M152.126 233.853C189.444 233.853 219.696 203.895 219.696 166.939C219.696 129.984 189.444 100.026 152.126 100.026C114.808 100.026 84.556 129.984 84.556 166.939C84.556 203.895 114.808 233.853 152.126 233.853ZM152.126 233.853H16.9858M93.564 133.397C74.905 165.401 85.9781 206.325 118.296 224.803C150.615 243.28 191.94 232.315 210.599 200.311C229.258 168.306 218.185 127.382 185.866 108.905C153.548 90.4271 112.223 101.393 93.564 133.397ZM93.564 133.397L161.134 17.499M210.6 133.441C191.941 101.436 150.616 90.471 118.298 108.949C85.9793 127.426 74.9062 168.35 93.5652 200.354C112.224 232.359 153.549 243.324 185.868 224.847C218.186 206.369 229.259 165.445 210.6 133.441ZM210.6 133.441L278.17 249.339" stroke="#2D2D2D" stroke-opacity="0.05" stroke-width="33.8099" stroke-linecap="round"/>
</svg>
