<svg width="482" height="617" viewBox="0 0 482 617" fill="none" xmlns="http://www.w3.org/2000/svg">
<path d="M365.615 556.124C454.977 570.633 539.066 510.656 553.434 422.162C567.802 333.668 507.007 250.168 417.644 235.659C328.282 221.151 244.193 281.127 229.825 369.621C215.457 458.115 276.252 541.615 365.615 556.124ZM365.615 556.124L42.0057 503.584M264.437 292.802C207.313 362.186 217.918 464.487 288.124 521.299C358.33 578.111 461.551 567.919 518.675 498.536C575.799 429.152 565.194 326.85 494.988 270.039C424.782 213.227 321.56 223.418 264.437 292.802ZM264.437 292.802L471.3 41.5415M544.676 338.409C512.438 254.517 417.743 212.192 333.169 243.874C248.595 275.556 206.169 369.248 238.408 453.14C270.646 537.032 365.341 579.357 449.914 547.675C534.488 515.993 576.914 422.301 544.676 338.409ZM544.676 338.409L661.421 642.21" stroke="#2D2D2D" stroke-opacity="0.05" stroke-width="82.0219" stroke-linecap="round"/>
</svg>
