<svg width="21" height="21" viewBox="0 0 21 21" fill="none" xmlns="http://www.w3.org/2000/svg">
<path d="M10.4237 5.1687C13.2608 5.1687 15.6024 7.51038 15.6024 10.3474C15.6024 13.2295 13.2608 15.5262 10.4237 15.5262C7.54164 15.5262 5.24499 13.2295 5.24499 10.3474C5.24499 7.51038 7.54164 5.1687 10.4237 5.1687ZM10.4237 13.7249C12.27 13.7249 13.7561 12.2388 13.7561 10.3474C13.7561 8.5011 12.27 7.01503 10.4237 7.01503C8.53236 7.01503 7.04629 8.5011 7.04629 10.3474C7.04629 12.2388 8.57739 13.7249 10.4237 13.7249ZM16.9985 4.98857C16.9985 5.66405 16.4581 6.20444 15.7826 6.20444C15.1071 6.20444 14.5667 5.66405 14.5667 4.98857C14.5667 4.31308 15.1071 3.77269 15.7826 3.77269C16.4581 3.77269 16.9985 4.31308 16.9985 4.98857ZM20.4209 6.20444C20.511 7.87064 20.511 12.8692 20.4209 14.5354C20.3309 16.1566 19.9706 17.5526 18.7998 18.7685C17.6289 19.9393 16.1879 20.2996 14.5667 20.3897C12.9005 20.4797 7.9019 20.4797 6.2357 20.3897C4.61454 20.2996 3.21853 19.9393 2.00266 18.7685C0.831813 17.5526 0.471554 16.1566 0.381489 14.5354C0.291424 12.8692 0.291424 7.87064 0.381489 6.20444C0.471554 4.58328 0.831813 3.14224 2.00266 1.9714C3.21853 0.800552 4.61454 0.440293 6.2357 0.350228C7.9019 0.260163 12.9005 0.260163 14.5667 0.350228C16.1879 0.440293 17.6289 0.800552 18.7998 1.9714C19.9706 3.14224 20.3309 4.58328 20.4209 6.20444ZM18.2594 16.2917C18.7998 14.9858 18.6647 11.8335 18.6647 10.3474C18.6647 8.90639 18.7998 5.75412 18.2594 4.40315C17.8991 3.54753 17.2236 2.82701 16.368 2.51178C15.017 1.9714 11.8648 2.10649 10.4237 2.10649C8.93765 2.10649 5.78538 1.9714 4.47944 2.51178C3.57879 2.87204 2.9033 3.54753 2.54305 4.40315C2.00266 5.75412 2.13775 8.90639 2.13775 10.3474C2.13775 11.8335 2.00266 14.9858 2.54305 16.2917C2.9033 17.1924 3.57879 17.8678 4.47944 18.2281C5.78538 18.7685 8.93765 18.6334 10.4237 18.6334C11.8648 18.6334 15.017 18.7685 16.368 18.2281C17.2236 17.8678 17.9441 17.1924 18.2594 16.2917Z" fill="#A9EFFF"/>
<a href="https://instagram.com/the_crypto_306">
<rect fill="black" fill-opacity="0" y="-1.72925" width="20.1745" height="26.5151"/>
</a>
</svg>
