<svg width="194" height="325" viewBox="0 0 194 325" fill="none" xmlns="http://www.w3.org/2000/svg">
<path d="M269.268 167.489C259.474 125.025 217.445 98.4637 175.394 108.162C133.342 117.861 107.192 160.147 116.986 202.611C126.78 245.075 168.809 271.637 210.86 261.938C252.912 252.239 279.062 209.953 269.268 167.489ZM269.268 167.489L304.734 321.265M170.328 260.491C211.643 273.324 255.304 249.983 267.848 208.359C280.392 166.735 257.069 122.589 215.754 109.756C174.44 96.9234 130.779 120.263 118.235 161.888C105.691 203.512 129.014 247.658 170.328 260.491ZM170.328 260.491L20.715 214.019M139.663 127.304C108.142 156.935 106.51 206.837 136.017 238.763C165.525 270.688 214.998 272.548 246.519 242.917C278.039 213.286 279.672 163.384 250.164 131.458C220.657 99.5328 171.184 97.6729 139.663 127.304ZM139.663 127.304L253.81 19.9999" stroke="#A8A8A8" stroke-opacity="0.2" stroke-width="39.4822" stroke-linecap="round"/>
</svg>
