<svg width="325" height="283" viewBox="0 0 325 283" fill="none" xmlns="http://www.w3.org/2000/svg">
<path d="M194.102 145.867C223.417 113.622 221.296 63.9489 189.365 34.9184C157.433 5.88786 107.783 8.49347 78.4677 40.7382C49.1524 72.9829 51.2732 122.656 83.2046 151.687C115.136 180.717 164.786 178.112 194.102 145.867ZM194.102 145.867L87.9415 262.635M61.2983 117.554C74.2941 158.817 118.353 181.397 159.706 167.988C201.06 154.579 224.049 110.257 211.053 68.9938C198.057 27.7303 153.998 5.15012 112.645 18.5596C71.2911 31.9691 48.3026 76.2903 61.2983 117.554ZM61.2983 117.554L14.2365 -31.8746M153.275 16.4628C110.964 7.44401 69.0255 34.5372 59.6034 76.9772C50.1813 119.417 76.8431 161.133 119.154 170.152C161.465 179.17 203.403 152.077 212.825 109.637C222.248 67.1972 195.586 25.4816 153.275 16.4628ZM153.275 16.4628L306.497 49.1228" stroke="#A8A8A8" stroke-opacity="0.2" stroke-width="39.4822" stroke-linecap="round"/>
</svg>
