<svg width="265" height="352" viewBox="0 0 265 352" fill="none" xmlns="http://www.w3.org/2000/svg">
<path d="M285.766 213.565C354.436 169.911 375.058 79.3951 331.828 11.3924C288.598 -56.6103 197.885 -76.3485 129.215 -32.6941C60.5451 10.9604 39.9223 101.476 83.1527 169.479C126.383 237.482 217.096 257.22 285.766 213.565ZM285.766 213.565L37.0903 371.652M60.4906 97.2188C63.5942 177.938 131.843 240.29 212.928 236.485C294.013 232.681 357.229 164.161 354.125 83.4415C351.022 2.72229 282.773 -59.6295 201.688 -55.825C120.603 -52.0205 57.387 16.4995 60.4906 97.2188ZM60.4906 97.2188L49.2514 -195.091M275.903 -39.6089C204.13 -76.6737 115.259 -48.5095 77.4042 23.2977C39.5496 95.1049 67.0462 183.363 138.82 220.428C210.593 257.493 299.464 229.329 337.319 157.521C375.174 85.7142 347.677 -2.54404 275.903 -39.6089ZM275.903 -39.6089L535.818 94.6148" stroke="#A8A8A8" stroke-opacity="0.2" stroke-width="73.722" stroke-linecap="round"/>
</svg>
