<svg width="341" height="352" viewBox="0 0 341 352" fill="none" xmlns="http://www.w3.org/2000/svg">
<path d="M43.701 397.95C122.987 416.254 201.955 367.443 220.081 288.927C238.207 210.412 188.627 131.925 109.341 113.621C30.0557 95.3167 -48.9122 144.128 -67.0382 222.643C-85.1643 301.159 -35.5847 379.646 43.701 397.95ZM43.701 397.95L-243.418 331.666M-31.4476 155.797C-86.7881 214.641 -83.3348 307.019 -23.7344 362.128C35.866 417.238 129.044 414.21 184.384 355.366C239.725 296.521 236.272 204.143 176.671 149.034C117.071 93.9248 23.8929 96.9526 -31.4476 155.797ZM-31.4476 155.797L168.958 -57.2974M217.186 213.295C193.24 136.146 110.819 92.5798 33.0929 115.986C-44.6336 139.392 -88.2319 220.907 -64.2867 298.056C-40.3415 375.204 42.0796 418.771 119.806 395.364C197.533 371.958 241.131 290.443 217.186 213.295ZM217.186 213.295L303.899 492.673" stroke="#A8A8A8" stroke-opacity="0.2" stroke-width="73.722" stroke-linecap="round"/>
</svg>
