<svg width="21" height="21" viewBox="0 0 21 21" fill="none" xmlns="http://www.w3.org/2000/svg">
<path d="M19.4268 0.260163C20.1924 0.260163 20.8679 0.935649 20.8679 1.74623V18.9937C20.8679 19.8042 20.1924 20.4347 19.4268 20.4347H2.08936C1.32381 20.4347 0.693359 19.8042 0.693359 18.9937V1.74623C0.693359 0.935649 1.32381 0.260163 2.08936 0.260163H19.4268ZM6.77274 17.5526V7.96071H3.8006V17.5526H6.77274ZM5.28667 6.60973C6.23235 6.60973 6.9979 5.84418 6.9979 4.8985C6.9979 3.95282 6.23235 3.14224 5.28667 3.14224C4.29595 3.14224 3.5304 3.95282 3.5304 4.8985C3.5304 5.84418 4.29595 6.60973 5.28667 6.60973ZM17.9858 17.5526V12.2838C17.9858 9.71697 17.4004 7.69051 14.3832 7.69051C12.9422 7.69051 11.9515 8.5011 11.5462 9.26665H11.5011V7.96071H8.6641V17.5526H11.6362V12.8242C11.6362 11.5633 11.8614 10.3474 13.4375 10.3474C14.9686 10.3474 14.9686 11.7885 14.9686 12.8692V17.5526H17.9858Z" fill="#A9EFFF"/>
<a href="https://www.linkedin.com/company/crypto-306/">
<rect fill="black" fill-opacity="0" y="-1.72925" width="20.1745" height="26.5151"/>
</a>
</svg>
