<svg width="24" height="19" viewBox="0 0 24 19" fill="none" xmlns="http://www.w3.org/2000/svg">
<path d="M21.1147 4.66405C21.1147 4.88922 21.1147 5.06935 21.1147 5.29451C21.1147 11.554 16.3863 18.7142 7.69503 18.7142C4.99308 18.7142 2.5163 17.9486 0.444809 16.5976C0.805068 16.6427 1.16533 16.6877 1.57062 16.6877C3.77721 16.6877 5.80367 15.9222 7.42484 14.6613C5.35334 14.6162 3.59708 13.2652 3.01166 11.3739C3.32688 11.4189 3.59708 11.464 3.91231 11.464C4.3176 11.464 4.76792 11.3739 5.12818 11.2838C2.96662 10.8335 1.34546 8.94213 1.34546 6.64548V6.60045C1.97591 6.96071 2.74146 7.14084 3.50701 7.18587C2.20107 6.33025 1.39049 4.88922 1.39049 3.26805C1.39049 2.3674 1.61565 1.55682 2.02094 0.88133C4.36263 3.71837 7.87516 5.60973 11.793 5.8349C11.7029 5.47464 11.6579 5.11438 11.6579 4.75412C11.6579 2.14224 13.7744 0.0257141 16.3863 0.0257141C17.7373 0.0257141 18.9531 0.566103 19.8538 1.51178C20.8895 1.28662 21.9253 0.88133 22.8259 0.340941C22.4657 1.46675 21.7451 2.3674 20.7544 2.95282C21.7001 2.86276 22.6458 2.59256 23.4564 2.2323C22.8259 3.17798 22.0153 3.98857 21.1147 4.66405Z" fill="#A9EFFF"/>
<a href="https://twitter.com/crypto_306">
<rect fill="black" fill-opacity="0" y="-1.72925" width="23.0566" height="26.5151"/>
</a>
</svg>
