<svg width="26" height="18" viewBox="0 0 26 18" fill="none" xmlns="http://www.w3.org/2000/svg">
<path d="M24.7603 3.44818C25.3007 5.33954 25.3007 9.39246 25.3007 9.39246C25.3007 9.39246 25.3007 13.4003 24.7603 15.3367C24.4901 16.4175 23.6345 17.2281 22.5988 17.4983C20.6624 17.9937 13.0069 17.9937 13.0069 17.9937C13.0069 17.9937 5.30633 17.9937 3.36994 17.4983C2.33419 17.2281 1.47857 16.4175 1.20838 15.3367C0.667991 13.4003 0.667991 9.39246 0.667991 9.39246C0.667991 9.39246 0.667991 5.33954 1.20838 3.44818C1.47857 2.3674 2.33419 1.51178 3.36994 1.24159C5.30633 0.7012 13.0069 0.7012 13.0069 0.7012C13.0069 0.7012 20.6624 0.7012 22.5988 1.24159C23.6345 1.51178 24.4901 2.3674 24.7603 3.44818ZM10.4851 13.0401L16.8797 9.39246L10.4851 5.74483V13.0401Z" fill="#A9EFFF"/>
<a href="https://youtube.com/@crypto_306">
<rect fill="black" fill-opacity="0" y="-1.72925" width="25.9387" height="26.5151"/>
</a>
</svg>
